<mxfile host="app.diagrams.net" modified="2022-10-31T08:15:05.299Z" agent="5.0 (Macintosh; Intel Mac OS X 10_15_7) AppleWebKit/537.36 (KHTML, like Gecko) Chrome/106.0.0.0 Safari/537.36" etag="wl3cXzauRfn3iZgj7JRA" version="20.5.1" type="github">
  <diagram id="prtHgNgQTEPvFCAcTncT" name="Page-1">
    <mxGraphModel dx="1019" dy="664" grid="1" gridSize="10" guides="1" tooltips="1" connect="1" arrows="1" fold="1" page="1" pageScale="1" pageWidth="827" pageHeight="1169" math="0" shadow="0">
      <root>
        <mxCell id="0" />
        <mxCell id="1" parent="0" />
        <mxCell id="QVis-9RiKgCkyD4ct44D-2" value="&lt;font style=&quot;font-size: 18px;&quot;&gt;&lt;b&gt;Windows&lt;/b&gt;&lt;/font&gt;" style="rounded=0;whiteSpace=wrap;html=1;" parent="1" vertex="1">
          <mxGeometry x="540" y="100" width="160" height="70" as="geometry" />
        </mxCell>
        <mxCell id="QVis-9RiKgCkyD4ct44D-5" value="&lt;font style=&quot;font-size: 18px;&quot;&gt;&lt;b&gt;Linux&lt;br&gt;Variants&lt;/b&gt;&lt;/font&gt;" style="rounded=0;whiteSpace=wrap;html=1;" parent="1" vertex="1">
          <mxGeometry x="540" y="190" width="160" height="70" as="geometry" />
        </mxCell>
        <mxCell id="QVis-9RiKgCkyD4ct44D-6" value="&lt;span style=&quot;font-size: 18px;&quot;&gt;&lt;b&gt;Mac OS&lt;/b&gt;&lt;/span&gt;" style="rounded=0;whiteSpace=wrap;html=1;" parent="1" vertex="1">
          <mxGeometry x="540" y="280" width="160" height="70" as="geometry" />
        </mxCell>
        <mxCell id="QVis-9RiKgCkyD4ct44D-7" value="" style="endArrow=none;html=1;rounded=0;fontSize=18;" parent="1" edge="1">
          <mxGeometry width="50" height="50" relative="1" as="geometry">
            <mxPoint x="490" y="320" as="sourcePoint" />
            <mxPoint x="490" y="130" as="targetPoint" />
          </mxGeometry>
        </mxCell>
        <mxCell id="QVis-9RiKgCkyD4ct44D-9" value="" style="endArrow=none;html=1;rounded=0;fontSize=18;" parent="1" edge="1">
          <mxGeometry width="50" height="50" relative="1" as="geometry">
            <mxPoint x="490" y="320" as="sourcePoint" />
            <mxPoint x="540" y="320" as="targetPoint" />
          </mxGeometry>
        </mxCell>
        <mxCell id="QVis-9RiKgCkyD4ct44D-10" value="" style="endArrow=none;html=1;rounded=0;fontSize=18;" parent="1" edge="1">
          <mxGeometry width="50" height="50" relative="1" as="geometry">
            <mxPoint x="490" y="130" as="sourcePoint" />
            <mxPoint x="540" y="130" as="targetPoint" />
          </mxGeometry>
        </mxCell>
        <mxCell id="QVis-9RiKgCkyD4ct44D-11" value="" style="endArrow=none;html=1;rounded=0;fontSize=18;exitX=1;exitY=0.5;exitDx=0;exitDy=0;" parent="1" source="QVis-9RiKgCkyD4ct44D-12" edge="1">
          <mxGeometry width="50" height="50" relative="1" as="geometry">
            <mxPoint x="490" y="226" as="sourcePoint" />
            <mxPoint x="540" y="226" as="targetPoint" />
          </mxGeometry>
        </mxCell>
        <mxCell id="QVis-9RiKgCkyD4ct44D-12" value="&lt;font color=&quot;#b266ff&quot;&gt;&lt;b&gt;JVM&lt;/b&gt;&lt;br&gt;&lt;/font&gt;&lt;font style=&quot;font-size: 10px;&quot;&gt;&amp;nbsp; Java&lt;/font&gt; &lt;font style=&quot;font-size: 10px;&quot;&gt;Virtual&lt;/font&gt; &lt;font style=&quot;font-size: 10px;&quot;&gt;Machine&lt;/font&gt;" style="ellipse;whiteSpace=wrap;html=1;fontSize=18;align=center;strokeWidth=3;fillColor=#f5f5f5;fontColor=#333333;strokeColor=#CC99FF;" parent="1" vertex="1">
          <mxGeometry x="320" y="189" width="140" height="75" as="geometry" />
        </mxCell>
        <mxCell id="QVis-9RiKgCkyD4ct44D-15" value="&lt;font style=&quot;font-size: 18px;&quot;&gt;&lt;b&gt;Application&lt;/b&gt;&lt;/font&gt;" style="rounded=0;whiteSpace=wrap;html=1;fontSize=10;" parent="1" vertex="1">
          <mxGeometry x="130" y="197" width="150" height="65" as="geometry" />
        </mxCell>
        <mxCell id="QVis-9RiKgCkyD4ct44D-16" value="" style="endArrow=classic;startArrow=classic;html=1;rounded=0;fontSize=18;exitX=1;exitY=0.5;exitDx=0;exitDy=0;" parent="1" source="QVis-9RiKgCkyD4ct44D-15" edge="1">
          <mxGeometry width="50" height="50" relative="1" as="geometry">
            <mxPoint x="280" y="270" as="sourcePoint" />
            <mxPoint x="320" y="230" as="targetPoint" />
          </mxGeometry>
        </mxCell>
        <mxCell id="GtelDIQSqOtFZrvUCB62-1" value="Compile platform" style="text;html=1;strokeColor=none;fillColor=none;align=center;verticalAlign=middle;whiteSpace=wrap;rounded=0;" vertex="1" parent="1">
          <mxGeometry x="560" y="350" width="130" height="30" as="geometry" />
        </mxCell>
        <mxCell id="GtelDIQSqOtFZrvUCB62-2" value="Target platform" style="text;html=1;strokeColor=none;fillColor=none;align=center;verticalAlign=middle;whiteSpace=wrap;rounded=0;" vertex="1" parent="1">
          <mxGeometry x="140" y="264" width="130" height="30" as="geometry" />
        </mxCell>
      </root>
    </mxGraphModel>
  </diagram>
</mxfile>
